# xmcd
#
# Track frame offsets:
#	150
#	3877
#	15431
#	31519
#	47076
#	64292
#	85141
#	96617
#	104003
#	120829
#	135645
#	146076
#	160434
#	180576
#
# Disc length: 2621 seconds
#
# Revision: 0
# Processed by: cddbd v1.5.2PL0 Copyright (c) Steve Scherf et al.
# Submitted via: dBpowerAMP V4.0
#
DISCID=b20a3b0e
DTITLE=Richmond Fontaine - Thirteen Cities
DYEAR=2007
DGENRE=Alt. Country
TTITLE0=Intro/The Border
TTITLE1=Moving Back Home #2
TTITLE2=$87 And A guilty Conscience That Gets Worse The Longer I Go
TTITLE3=I Fell Into Painting Houses In Phoenix, Arizona
TTITLE4=El Tiradito
TTITLE5=A Ghost I Became
TTITLE6=Westward Ho
TTITLE7=St Ides, Parked Cars And Other Peoples Homes
TTITLE8=The Kid From Belmont Street
TTITLE9=Capsized
TTITLE10=Ballad Of Dan Frita
TTITLE11=The Disappearance Of Ray Norton
TTITLE12=Four Walls
TTITLE13=Lost In This World
EXTD=
EXTT0=
EXTT1=
EXTT2=
EXTT3=
EXTT4=
EXTT5=
EXTT6=
EXTT7=
EXTT8=
EXTT9=
EXTT10=
EXTT11=
EXTT12=
EXTT13=
PLAYORDER=
